<svg width="1440" height="2384" viewBox="0 0 1440 2384" fill="none" xmlns="http://www.w3.org/2000/svg">
    <path style="mix-blend-mode:color-dodge" opacity="0.15" d="M310.011 1849.9C365.572 1861.81 421.788 1475.11 435.406 985.631C449.025 496.154 415.059 90.5667 359.501 78.5917C303.943 66.6167 247.724 453.385 234.035 942.505C220.346 1431.62 254.362 1837.98 310.011 1849.9Z" fill="url(#paint0_radial)"/>
    <path style="mix-blend-mode:color-dodge" opacity="0.15" d="M208.951 1682.9C264.513 1694.78 320.666 1308.22 334.434 818.609C348.202 329 314 -76.4996 258.44 -88.4025C202.88 -100.305 146.666 286.39 132.977 775.509C119.27 1264.99 153.303 1670.98 208.951 1682.9Z" fill="url(#paint1_radial)"/>
    <path style="mix-blend-mode:color-dodge" opacity="0.15" d="M635.043 1971.37C690.605 1983.27 746.819 1596.6 760.437 1107.12C774.056 617.646 740.023 211.969 684.532 200.084C629.041 188.198 572.757 574.853 559.066 1064C545.376 1553.14 579.409 1959.5 635.043 1971.37Z" fill="url(#paint2_radial)"/>
    <path style="mix-blend-mode:color-dodge" opacity="0.15" d="M299.715 1785.14C355.276 1797.04 411.49 1410.37 425.109 920.894C438.728 431.417 404.765 25.7573 349.204 13.8543C293.643 1.95136 237.429 388.624 223.738 877.768C210.048 1366.91 244.154 1773.24 299.715 1785.14Z" fill="url(#paint3_radial)"/>
    <path style="mix-blend-mode:color-dodge" opacity="0.15" d="M425.581 1753.86C481.124 1765.76 537.355 1379.09 550.974 889.615C564.593 400.137 530.648 -5.51749 475.081 -17.3006C419.514 -29.0836 363.306 357.469 349.598 846.608C335.89 1335.75 369.949 1741.94 425.581 1753.86Z" fill="url(#paint4_radial)"/>
    <path style="mix-blend-mode:color-dodge" opacity="0.15" d="M75.4815 1650.68C131.025 1662.58 187.258 1275.89 200.877 786.411C214.495 296.934 180.532 -108.702 124.97 -120.605C69.4091 -132.508 13.1952 254.165 -0.494266 743.285C-14.1837 1232.4 19.8322 1638.76 75.4815 1650.68Z" fill="url(#paint5_radial)"/>
    <path style="mix-blend-mode:color-dodge" opacity="0.15" d="M975.531 2241.87C1031.07 2253.76 1087.31 1867.07 1100.92 1377.62C1114.54 888.166 1080.56 482.479 1025.02 470.58C969.477 458.682 913.246 845.349 899.537 1334.49C885.829 1823.63 919.883 2229.94 975.531 2241.87Z" fill="url(#paint6_radial)"/>
    <path style="mix-blend-mode:color-dodge" opacity="0.15" d="M874.458 2074.87C930.019 2086.77 986.234 1700.08 999.87 1210.6C1013.51 721.13 979.508 315.486 923.964 303.587C868.42 291.688 812.189 678.356 798.481 1167.5C784.773 1656.63 818.826 2062.95 874.458 2074.87Z" fill="url(#paint7_radial)"/>
    <path style="mix-blend-mode:color-dodge" opacity="0.15" d="M1300.56 2363.36C1356.11 2375.26 1412.34 1988.59 1425.96 1499.11C1439.57 1009.63 1405.6 603.972 1350.05 592.073C1294.51 580.174 1238.28 966.842 1224.57 1455.98C1210.86 1945.12 1244.92 2351.41 1300.56 2363.36Z" fill="url(#paint8_radial)"/>
    <path style="mix-blend-mode:color-dodge" opacity="0.15" d="M965.236 2177.13C1020.78 2189 1077.01 1802.33 1090.63 1312.86C1104.25 823.381 1070.27 417.718 1014.71 405.815C959.148 393.912 902.935 780.584 889.227 1269.72C875.519 1758.86 909.593 2165.11 965.236 2177.13Z" fill="url(#paint9_radial)"/>
    <path style="mix-blend-mode:color-dodge" opacity="0.15" d="M1091.1 2145.85C1146.65 2157.72 1202.88 1771.06 1216.5 1281.58C1230.11 792.101 1196.13 386.533 1140.59 374.538C1085.05 362.544 1028.81 749.332 1015.12 1238.45C1001.43 1727.57 1035.52 2133.94 1091.1 2145.85Z" fill="url(#paint10_radial)"/>
    <path style="mix-blend-mode:color-dodge" opacity="0.15" d="M740.986 2042.64C796.548 2054.55 852.762 1667.87 866.38 1178.4C879.999 688.918 846.037 283.259 790.475 271.356C734.914 259.453 678.7 646.125 665.009 1135.27C651.319 1624.41 685.337 2030.72 740.986 2042.64Z" fill="url(#paint11_radial)"/>
    <path style="mix-blend-mode:color-dodge" opacity="0.15" d="M676.831 2094.12C732.394 2106.02 788.61 1719.32 802.229 1229.85C815.848 740.368 781.879 334.828 726.356 322.838C670.834 310.848 614.579 697.608 600.889 1186.73C587.199 1675.85 621.181 2082.19 676.831 2094.12Z" fill="url(#paint12_radial)"/>
    <path style="mix-blend-mode:color-dodge" opacity="0.15" d="M575.776 1927.12C631.338 1939.03 687.554 1552.33 701.173 1062.85C714.792 573.375 680.829 167.716 625.32 155.826C569.81 143.936 513.538 530.691 499.8 1019.73C486.127 1509.22 520.126 1915.2 575.776 1927.12Z" fill="url(#paint13_radial)"/>
    <path style="mix-blend-mode:color-dodge" opacity="0.15" d="M1001.87 2215.59C1057.43 2227.49 1113.64 1840.82 1127.26 1351.34C1140.88 861.863 1106.92 456.204 1051.36 444.301C995.795 432.398 939.581 819.07 925.89 1308.21C912.2 1797.36 946.213 2203.76 1001.87 2215.59Z" fill="url(#paint14_radial)"/>
    <path style="mix-blend-mode:color-dodge" opacity="0.15" d="M666.539 2029.36C722.1 2041.26 778.314 1654.59 791.933 1165.11C805.552 675.633 771.589 269.973 716.028 258.07C660.467 246.167 604.253 632.839 590.562 1121.98C576.871 1611.13 610.89 2017.43 666.539 2029.36Z" fill="url(#paint15_radial)"/>
    <path style="mix-blend-mode:color-dodge" opacity="0.15" d="M792.422 1998.08C847.965 2009.98 904.196 1623.31 917.815 1133.83C931.433 644.357 897.454 238.694 841.91 226.795C786.367 214.896 730.135 601.564 716.427 1090.7C702.719 1579.84 736.773 1986.16 792.422 1998.08Z" fill="url(#paint16_radial)"/>
    <path style="mix-blend-mode:color-dodge" opacity="0.15" d="M442.306 1894.9C497.85 1906.8 554.081 1520.13 567.7 1030.65C581.318 541.175 547.356 135.516 491.795 123.613C436.234 111.71 380.02 498.382 366.312 987.521C352.604 1476.66 386.622 1882.96 442.306 1894.9Z" fill="url(#paint17_radial)"/>
    <defs>
        <radialGradient id="paint0_radial" cx="0" cy="0" r="1" gradientUnits="userSpaceOnUse" gradientTransform="translate(190.374 1103.4) rotate(91.7205) scale(753.672 84.3278)">
            <stop stop-color="#F1F2F2"/>
            <stop offset="1" stop-color="#5ABDEB"/>
        </radialGradient>
        <radialGradient id="paint1_radial" cx="0" cy="0" r="1" gradientUnits="userSpaceOnUse" gradientTransform="translate(-3.15655e+06 5.25562e+07) rotate(13.899) scale(62904.5 515265)">
            <stop stop-color="#F1F2F2"/>
            <stop offset="1" stop-color="#5ABDEB"/>
        </radialGradient>
        <radialGradient id="paint2_radial" cx="0" cy="0" r="1" gradientUnits="userSpaceOnUse" gradientTransform="translate(-3.30079e+06 5.57463e+07) rotate(13.8987) scale(62891.5 515260)">
            <stop stop-color="#F1F2F2"/>
            <stop offset="1" stop-color="#5ABDEB"/>
        </radialGradient>
        <radialGradient id="paint3_radial" cx="0" cy="0" r="1" gradientUnits="userSpaceOnUse" gradientTransform="translate(-3.1847e+06 5.32507e+07) rotate(13.8988) scale(62892.2 515260)">
            <stop stop-color="#F1F2F2"/>
            <stop offset="1" stop-color="#5ABDEB"/>
        </radialGradient>
        <radialGradient id="paint4_radial" cx="0" cy="0" r="1" gradientUnits="userSpaceOnUse" gradientTransform="translate(-3.23432e+06 5.41455e+07) rotate(13.8988) scale(62890 515225)">
            <stop stop-color="#F1F2F2"/>
            <stop offset="1" stop-color="#5ABDEB"/>
        </radialGradient>
        <radialGradient id="paint5_radial" cx="0" cy="0" r="1" gradientUnits="userSpaceOnUse" gradientTransform="translate(-3.10768e+06 5.15781e+07) rotate(13.8988) scale(62892 515260)">
            <stop stop-color="#F1F2F2"/>
            <stop offset="1" stop-color="#5ABDEB"/>
        </radialGradient>
        <radialGradient id="paint6_radial" cx="0" cy="0" r="1" gradientUnits="userSpaceOnUse" gradientTransform="translate(-3.41364e+06 5.8311e+07) rotate(13.8988) scale(62895.1 515259)">
            <stop stop-color="#F1F2F2"/>
            <stop offset="1" stop-color="#5ABDEB"/>
        </radialGradient>
        <radialGradient id="paint7_radial" cx="0" cy="0" r="1" gradientUnits="userSpaceOnUse" gradientTransform="translate(-3.38551e+06 5.7517e+07) rotate(13.8988) scale(62893.7 515260)">
            <stop stop-color="#F1F2F2"/>
            <stop offset="1" stop-color="#5ABDEB"/>
        </radialGradient>
        <radialGradient id="paint8_radial" cx="0" cy="0" r="1" gradientUnits="userSpaceOnUse" gradientTransform="translate(-3.52982e+06 6.07077e+07) rotate(13.8988) scale(62895.1 515259)">
            <stop stop-color="#F1F2F2"/>
            <stop offset="1" stop-color="#5ABDEB"/>
        </radialGradient>
        <radialGradient id="paint9_radial" cx="0" cy="0" r="1" gradientUnits="userSpaceOnUse" gradientTransform="translate(-3.41378e+06 5.82128e+07) rotate(13.8989) scale(62900.1 515266)">
            <stop stop-color="#F1F2F2"/>
            <stop offset="1" stop-color="#5ABDEB"/>
        </radialGradient>
        <radialGradient id="paint10_radial" cx="0" cy="0" r="1" gradientUnits="userSpaceOnUse" gradientTransform="translate(-3.4636e+06 5.91114e+07) rotate(13.8987) scale(62891.8 515267)">
            <stop stop-color="#F1F2F2"/>
            <stop offset="1" stop-color="#5ABDEB"/>
        </radialGradient>
        <radialGradient id="paint11_radial" cx="0" cy="0" r="1" gradientUnits="userSpaceOnUse" gradientTransform="translate(-3.3367e+06 5.65395e+07) rotate(13.8988) scale(62892.3 515260)">
            <stop stop-color="#F1F2F2"/>
            <stop offset="1" stop-color="#5ABDEB"/>
        </radialGradient>
        <radialGradient id="paint12_radial" cx="0" cy="0" r="1" gradientUnits="userSpaceOnUse" gradientTransform="translate(-3.3091e+06 5.60951e+07) rotate(13.8985) scale(62882.2 515261)">
            <stop stop-color="#F1F2F2"/>
            <stop offset="1" stop-color="#5ABDEB"/>
        </radialGradient>
        <radialGradient id="paint13_radial" cx="0" cy="0" r="1" gradientUnits="userSpaceOnUse" gradientTransform="translate(-3.28101e+06 5.53018e+07) rotate(13.8986) scale(62887.1 515268)">
            <stop stop-color="#F1F2F2"/>
            <stop offset="1" stop-color="#5ABDEB"/>
        </radialGradient>
        <radialGradient id="paint14_radial" cx="0" cy="0" r="1" gradientUnits="userSpaceOnUse" gradientTransform="translate(-3.42529e+06 5.84917e+07) rotate(13.8988) scale(62892.3 515260)">
            <stop stop-color="#F1F2F2"/>
            <stop offset="1" stop-color="#5ABDEB"/>
        </radialGradient>
        <radialGradient id="paint15_radial" cx="0" cy="0" r="1" gradientUnits="userSpaceOnUse" gradientTransform="translate(-3.30919e+06 5.5996e+07) rotate(13.8988) scale(62892.3 515260)">
            <stop stop-color="#F1F2F2"/>
            <stop offset="1" stop-color="#5ABDEB"/>
        </radialGradient>
        <radialGradient id="paint16_radial" cx="0" cy="0" r="1" gradientUnits="userSpaceOnUse" gradientTransform="translate(-3.35903e+06 5.68945e+07) rotate(13.8988) scale(62895.1 515259)">
            <stop stop-color="#F1F2F2"/>
            <stop offset="1" stop-color="#5ABDEB"/>
        </radialGradient>
        <radialGradient id="paint17_radial" cx="0" cy="0" r="1" gradientUnits="userSpaceOnUse" gradientTransform="translate(-3.23218e+06 5.43233e+07) rotate(13.8988) scale(62895.4 515259)">
            <stop stop-color="#F1F2F2"/>
            <stop offset="1" stop-color="#5ABDEB"/>
        </radialGradient>
    </defs>
</svg>
